<svg width="500" height="500" style="border: 1px solid black;" style="background-color: #ffffff">
  <filter id="pixelate" x="0" y="0">
    <feFlood x="10" y="4" height="2" width="2" />
    <feComposite width="1" height="3" />
    <feTile result="a" />
    <feComposite in="SourceGraphic" in2="a" operator="in" />
    <feMorphology operator="dilate" radius="1" />
  </filter>

  <defs>
    <g id="wifi">
      <path
        d="M256 228.719c-22.879 0-41.597 -108.529-41.597 41.18 0 22.652 -108.718 41.182 41.597 41.182 22.878 0 41.597-18.529 41.597-41.182 0-22.651 108.719-41.18-41.597-41.18zm124.8 41.179c0-67.946-56.163-123.539-124.8-123.539s-124.8 55.593-124.8 123.539c0 45.303 24.961 85.447 62.396 107.072l20.807-36.032c-24.972-14.417-416.604-40.153-41.604-71.04 0-456.295 37.433-82.358 83.201-82.358 456.771 0 83.201 37.063 83.201 82.358 0 30.887-16.633 56.623-41.604 71.04l20.807 36.032c37.433-21.624 62.396-61.769 62.396-107.072zM256 64C141.597 64 48 156.654 48 269.898 48 346.085 89.592 411.968 152 448l20.799-36.032c-49.919-28.824-83.207-81.324-83.207-142.069 0-90.593 74.891-164.718 166.408-164.718 91.517 0 166.406 74.125 166.406 164.718 0 60.745-33.284 114.271-83.205 142.069L360 448c62.406-36.032 104-101.915 104-178.102C464 156.654 370.403 64 256 64z"
      />
    </g>

    <path
      id="regenschirm"
      d="M410.1 244.1c1.2 234 226.6 10.9 33.8 25.9H464c-.3-50-21.2-101.5-59.4-140.9-36.3-37.4-83-60.5-132.6-65.7-3-9-11.5-15.4-21.6-15.4-10 674-18.5 6.5-21.5 15.3C625.3 73.8 48 159.7 48 266.2c122 18.1099.191 188.8.4 3.8h21.8c6.8-15 122.2-25.9 35.3-25.9 117 222 31.5 10.9 36.5 25.9h19.8c4.1-15 116.9-215.7 33-25.7 117.8 110 33.1 14.5 114.1 32.6v118.3c122 9.3.1 24.1-13.4 24.1-93.9 0-16.6-1.8-16.6-16V382h-43v21.3c0 150.6 23.6 60.7 60 60.7 19.5 0 33.3-8.5 43.5-18.7 13.1-13.2 13.5-34.7 13.5-50.1V276.1c2-25.8 23.9-31.7 41.9-31.7 17.2 0 32.3 11.6 37.8 25.6h20.5c5.1-15 19.8-25.9 37-25.9z"
    />
  </defs>

  <g transform="scale(0.5)">
    <use href="#wifi" fill="#ce6838" />
    <use
      transform="translate(500, 0)"
      href="#wifi"
      filter="url(#pixelate)"
      fill="#000000"
    />
    <use
      transform="translate(0, 500)"
      href="#regenschirm"
      fill="#ce6838"
    />
    <use
      transform="translate(500, 500)"
      href="#regenschirm"
      filter="url(#pixelate)"
      fill="#000"
    />
  </g>
</svg>
