<?xml version="1.0" encoding="UTF-8" standalone="no"?>
<svg
   xmlns:osb="http://www.openswatchbook.org/uri/2009/osb"
   xmlns:dc="http://purl.org/dc/elements/1.1/"
   xmlns:cc="http://creativecommons.org/ns#"
   xmlns:rdf="http://www.w3.org/1999/02/22-rdf-syntax-ns#"
   xmlns:svg="http://www.w3.org/2000/svg"
   xmlns="http://www.w3.org/2000/svg"
   xmlns:xlink="http://www.w3.org/1999/xlink"
   xmlns:sodipodi="http://sodipodi.sourceforge.net/DTD/sodipodi-0.dtd"
   xmlns:inkscape="http://www.inkscape.org/namespaces/inkscape"
   id="emoji"
   viewBox="0 0 72 72"
   version="1.1"
   sodipodi:docname="dry_annanas.svg"
   inkscape:version="0.92.4 (f8dce91, 2019-08-02)">
  <metadata
     id="metadata3825">
    <rdf:RDF>
      <cc:Work
         rdf:about="">
        <dc:format>image/svg+xml</dc:format>
        <dc:type
           rdf:resource="http://purl.org/dc/dcmitype/StillImage" />
      </cc:Work>
    </rdf:RDF>
  </metadata>
  <defs
     id="defs3823">
    <linearGradient
       inkscape:collect="always"
       id="linearGradient6613">
      <stop
         style="stop-color:#2b2200;stop-opacity:1;"
         offset="0"
         id="stop6609" />
      <stop
         style="stop-color:#2b2200;stop-opacity:0;"
         offset="1"
         id="stop6611" />
    </linearGradient>
    <linearGradient
       inkscape:collect="always"
       id="linearGradient6605">
      <stop
         style="stop-color:#2b2200;stop-opacity:1;"
         offset="0"
         id="stop6601" />
      <stop
         style="stop-color:#2b2200;stop-opacity:0;"
         offset="1"
         id="stop6603" />
    </linearGradient>
    <linearGradient
       inkscape:collect="always"
       id="linearGradient6599">
      <stop
         style="stop-color:#ff0000;stop-opacity:1;"
         offset="0"
         id="stop6595" />
      <stop
         style="stop-color:#ff0000;stop-opacity:0;"
         offset="1"
         id="stop6597" />
    </linearGradient>
    <linearGradient
       id="linearGradient6344"
       osb:paint="solid">
      <stop
         style="stop-color:#d40000;stop-opacity:1;"
         offset="0"
         id="stop6342" />
    </linearGradient>
    <linearGradient
       inkscape:collect="always"
       id="linearGradient4902"
       osb:paint="gradient">
      <stop
         style="stop-color:#d40000;stop-opacity:1;"
         offset="0"
         id="stop4898" />
      <stop
         style="stop-color:#d40000;stop-opacity:0;"
         offset="1"
         id="stop4900" />
    </linearGradient>
    <meshgradient
       inkscape:collect="always"
       id="meshgradient3897"
       gradientUnits="userSpaceOnUse"
       x="29.856199"
       y="20.8234">
      <meshrow
         id="meshrow3899">
        <meshpatch
           id="meshpatch3901">
          <stop
             path="c 1.4403,0  2.8806,0  4.3209,0"
             style="stop-color:#ffffff;stop-opacity:0"
             id="stop3903" />
          <stop
             path="c 0,1.36327  0,2.72653  0,4.0898"
             style="stop-color:#000000;stop-opacity:0"
             id="stop3905" />
          <stop
             path="c -1.4403,0  -2.8806,0  -4.3209,0"
             style="stop-color:#ffffff;stop-opacity:0"
             id="stop3907" />
          <stop
             path="c 0,-1.36327  0,-2.72653  0,-4.0898"
             style="stop-color:#000000;stop-opacity:0"
             id="stop3909" />
        </meshpatch>
      </meshrow>
    </meshgradient>
    <linearGradient
       inkscape:collect="always"
       xlink:href="#linearGradient6599"
       id="linearGradient6593"
       x1="36.735199"
       y1="31.648199"
       x2="35.397129"
       y2="5.5980864"
       gradientUnits="userSpaceOnUse" />
    <linearGradient
       inkscape:collect="always"
       xlink:href="#linearGradient6605"
       id="linearGradient6607"
       x1="35.730353"
       y1="47.505"
       x2="50.75"
       y2="47.505"
       gradientUnits="userSpaceOnUse" />
    <linearGradient
       inkscape:collect="always"
       xlink:href="#linearGradient6613"
       id="linearGradient6615"
       x1="22.91"
       y1="47.505"
       x2="45.085126"
       y2="47.505"
       gradientUnits="userSpaceOnUse" />
  </defs>
  <sodipodi:namedview
     pagecolor="#000000"
     bordercolor="#666666"
     borderopacity="0"
     objecttolerance="10"
     gridtolerance="10"
     guidetolerance="10"
     inkscape:pageopacity="0"
     inkscape:pageshadow="0"
     inkscape:window-width="1920"
     inkscape:window-height="1018"
     id="namedview3821"
     showgrid="false"
     inkscape:zoom="11.611111"
     inkscape:cx="18.559809"
     inkscape:cy="36"
     inkscape:window-x="0"
     inkscape:window-y="34"
     inkscape:window-maximized="1"
     inkscape:current-layer="emoji" />
  <g
     id="color">
    <path
       stroke-miterlimit="10"
       d="M37.17,65.34h-1.26c-6.6,0-12-5.4-12-12V41.67c0-6.6,5.4-12,12-12h0.82c0,0,7.35,3.41,7.35,8c0,4.58,0,18,0,18v2.31 C44.08,57.98,44.5,65.34,37.17,65.34z"
       id="path3789"
       style="fill-opacity:1;fill:url(#linearGradient6615)"
       stroke-linejoin="round"
       stroke-linecap="round"
       stroke-width="2"
       stroke="#000000"
       fill="#000000" />
    <path
       fill="black"
       stroke="#000000"
       stroke-width="2"
       stroke-linecap="round"
       stroke-linejoin="round"
       stroke-miterlimit="10"
       d="M49.75,41.67v11.67c0,6.6-5.4,12-12,12h-0.58c7.33,0,6.91-7.36,6.91-7.36v-2.31c0,0,0-13.42,0-18c0-4.59-7.35-8-7.35-8h1.02 C44.35,29.67,49.75,35.07,49.75,41.67z"
       id="path3791"
       style="fill-opacity:1;fill:url(#linearGradient6607)" />
    <path
       fill="#B1CC33"
       stroke="none"
       stroke-width="2"
       stroke-linejoin="round"
       stroke-miterlimit="10"
       d="M44.374,14.6787 c2.1344,0.044,3.8706,0.5836,3.8706,0.5836s-2.2161,2.2134-4.6058,5.5611c1.9403,0.0441,3.5029,0.5396,3.5029,0.5396 s-3.1148,3.1274-5.8109,7.4661c-1.8893,3.0393-4.5956,2.8191-4.5956,2.8191s-2.7063,0.2313-4.6058-2.8191 c-2.6961-4.3388-5.8109-7.4661-5.8109-7.4661s1.5625-0.4956,3.5029-0.5396c-2.3897-3.3476-4.6058-5.5611-4.6058-5.5611 s1.7361-0.5396,3.8706-0.5836c-2.2978-3.1275-4.3301-5.1536-4.3301-5.1536s7.9146-2.4337,10.9375,2.4336 c0.4391,0.7048,0.7762,1.3875,1.0417,2.0483c0.2553-0.6608,0.5923-1.3435,1.0315-2.0483 c3.0228-4.8673,10.9375-2.4336,10.9375-2.4336S46.6718,11.5513,44.374,14.6787z"
       id="path3793" />
    <path
       fill="#B1CC33"
       stroke="none"
       stroke-width="2"
       stroke-linecap="round"
       stroke-linejoin="round"
       stroke-miterlimit="10"
       d="M43.6387,20.8234c-3.0513,1.236-3.5224,3.1594-4.3209,4.0898"
       id="path3795" />
    <path
       fill="#B1CC33"
       stroke="none"
       stroke-width="2"
       stroke-linecap="round"
       stroke-linejoin="round"
       stroke-miterlimit="10"
       d="M44.374,14.6787c0,0-4.4382,1.5439-4.6699,4.3635"
       id="path3797" />
    <path
       fill="#B1CC33"
       stroke="none"
       stroke-width="2"
       stroke-linecap="round"
       stroke-linejoin="round"
       stroke-miterlimit="10"
       d="M29.8562,20.8234c3.0513,1.236,3.5224,3.1594,4.3209,4.0898"
       id="path3799" />
    <path
       fill="#B1CC33"
       stroke="none"
       stroke-width="2"
       stroke-linecap="round"
       stroke-linejoin="round"
       stroke-miterlimit="10"
       d="M29.1209,14.6787c0,0,4.4382,1.5439,4.6699,4.3635"
       id="path3801" />
  </g>
  <g
     id="hair" />
  <g
     id="skin" />
  <g
     id="skin-shadow" />
  <g
     id="line">
    <path
       stroke-miterlimit="10"
       d="m 45.3047,32.3685 c 2.7068,2.205 4.443,5.5616 4.443,9.3041 v 11.6667 c 0,6.6 -5.4,12 -12,12 h -1.8343 c -6.6,0 -12,-5.4 -12,-12 V 44.526316 41.6725 c 0,-4.0844 2.0681,-7.7093 5.2089,-9.8792"
       id="path3807"
       inkscape:connector-curvature="0"
       style="fill:none;stroke:#000000;stroke-width:2;stroke-linecap:round;stroke-linejoin:round;stroke-miterlimit:10"
       sodipodi:nodetypes="cssssscsc" />
    <path
       stroke-miterlimit="10"
       d="m 44.374,14.6787 c 2.1344,0.044 3.8706,0.5836 3.8706,0.5836 0,0 -2.2161,2.2134 -4.6058,5.5611 1.9403,0.0441 3.5029,0.5396 3.5029,0.5396 0,0 -3.1148,3.1274 -5.8109,7.4661 -1.8893,3.0393 -4.5956,2.8191 -4.5956,2.8191 0,0 -2.7063,0.2313 -4.6058,-2.8191 C 30.988654,26.993311 29.772951,25.374407 28.74994,24.117503 27.355113,22.403773 26.3185,21.363 26.3185,21.363 c 0,0 1.5625,-0.4956 3.5029,-0.5396 -2.3897,-3.3476 -4.6058,-5.5611 -4.6058,-5.5611 0,0 1.7361,-0.5396 3.8706,-0.5836 -2.2978,-3.1275 -4.3301,-5.1536 -4.3301,-5.1536 0,0 7.9146,-2.4337 10.9375,2.4336 0.4391,0.7048 0.7762,1.3875 1.0417,2.0483 0.2553,-0.6608 0.5923,-1.3435 1.0315,-2.0483 3.0228,-4.8673 10.9375,-2.4336 10.9375,-2.4336 0,0 -2.0325,2.0262 -4.3303,5.1536 z"
       id="path3809"
       style="fill:url(#linearGradient6593);fill-opacity:1;stroke:#000000;stroke-width:2;stroke-linejoin:round;stroke-miterlimit:10"
       inkscape:connector-curvature="0"
       sodipodi:nodetypes="cccccccscccccccccc" />
    <path
       fill="none"
       stroke="#000000"
       stroke-width="2"
       stroke-linecap="round"
       stroke-linejoin="round"
       stroke-miterlimit="10"
       d="M43.6387,20.8234c-3.0513,1.236-3.5224,3.1594-4.3209,4.0898"
       id="path3811" />
    <path
       fill="none"
       stroke="#000000"
       stroke-width="2"
       stroke-linecap="round"
       stroke-linejoin="round"
       stroke-miterlimit="10"
       d="M44.374,14.6787c0,0-4.4382,1.5439-4.6699,4.3635"
       id="path3813" />
    <path
       fill="none"
       stroke="#000000"
       stroke-width="2"
       stroke-linecap="round"
       stroke-linejoin="round"
       stroke-miterlimit="10"
       d="M29.8562,20.8234c3.0513,1.236,3.5224,3.1594,4.3209,4.0898"
       id="path3815"
       style="fill-opacity:1;fill:url(#meshgradient3897)" />
    <path
       fill="none"
       stroke="#000000"
       stroke-width="2"
       stroke-linecap="round"
       stroke-linejoin="round"
       stroke-miterlimit="10"
       d="M29.1209,14.6787c0,0,4.4382,1.5439,4.6699,4.3635"
       id="path3817" />
  </g>
</svg>
