<svg id="emoji" xmlns="http://www.w3.org/2000/svg" viewBox="0 0 72 72">
  <g id="color">
    <path d="M45.0931,43.8251c3.3559,6.6281,2.72,14.78-4.1425,18.2551" fill="none" stroke="#d0cfce" stroke-linecap="round" stroke-miterlimit="10" stroke-width="4"/>
    <path d="M43,21c1.7484,4.4914.4947,9.8429-4.7506,11.8847" fill="none" stroke="#d0cfce" stroke-linecap="round" stroke-miterlimit="10" stroke-width="3"/>
    <rect x="27" y="8" width="16" height="11" fill="#3f3f3f" stroke="#3f3f3f" stroke-linecap="round" stroke-linejoin="round"/>
  </g>
  <g id="line">
    <line x1="13.677" y1="9.9536" x2="19.0703" y2="15.3469" fill="none" stroke="#000" stroke-linecap="round" stroke-linejoin="round" stroke-width="2"/>
    <line x1="19.8939" y1="11.196" x2="12.7703" y2="13.9501" fill="none" stroke="#000" stroke-linecap="round" stroke-linejoin="round" stroke-width="2"/>
    <line x1="15.3315" y1="16.2584" x2="17.3327" y2="8.8878" fill="none" stroke="#000" stroke-linecap="round" stroke-linejoin="round" stroke-width="2"/>
    <line x1="7.677" y1="37.9536" x2="13.0703" y2="43.3469" fill="none" stroke="#000" stroke-linecap="round" stroke-linejoin="round" stroke-width="2"/>
    <line x1="13.8939" y1="39.196" x2="6.7703" y2="41.9501" fill="none" stroke="#000" stroke-linecap="round" stroke-linejoin="round" stroke-width="2"/>
    <line x1="9.3315" y1="44.2584" x2="11.3327" y2="36.8878" fill="none" stroke="#000" stroke-linecap="round" stroke-linejoin="round" stroke-width="2"/>
    <path d="M47,43c3.7422,7.3909,3.0334,16.4814-4.6193,20.3561A15.2726,15.2726,0,0,1,21.7485,56.99C19.7516,53.0455,20.9967,46.6853,23,43" fill="none" stroke="#000" stroke-linecap="round" stroke-linejoin="round" stroke-width="2"/>
    <path d="M32,28s3,4,7,0" fill="none" stroke="#000" stroke-linecap="round" stroke-linejoin="round" stroke-width="2"/>
    <line x1="25" y1="38" x2="11" y2="30" fill="none" stroke="#000" stroke-linecap="round" stroke-linejoin="round" stroke-width="2"/>
    <line x1="46.0179" y1="38.0311" x2="61" y2="29" fill="none" stroke="#000" stroke-linecap="round" stroke-linejoin="round" stroke-width="2"/>
    <circle cx="35.5" cy="44.5" r="0.5" fill="none" stroke="#000" stroke-linecap="round" stroke-linejoin="round" stroke-width="2"/>
    <circle cx="35.5" cy="56.5" r="0.5" fill="none" stroke="#000" stroke-linecap="round" stroke-linejoin="round" stroke-width="2"/>
    <svg id="emoji" xmlns="http://www.w3.org/2000/svg" viewBox="-63 -35  200 200">
  <g id="color">
    <circle fill="#92D3F5" stroke="none" stroke-width="2" stroke-linecap="round" stroke-linejoin="round" stroke-miterlimit="10" cx="36" cy="36" r="28"/>
    <path fill="#B1CC33" d="M9,34c0.5363,0.13,2.3029,0.3956,3,1c0.8804,0.7633-0.0786,1.4353,1,3c0.8754,1.2699,1.4379,3.0859,2,3 c0.7427-0.1134,0.5561-2.6591,2-4c0.4647-0.4316,1.2271-2.1396,2-2c1.4918,0.2695,1.2206,3.3712,3,4 c1.0358,0.366,2.3338,0.7411,3,0c0.8521-0.9479,0.3369-1.7146,1-3c0.8275-1.6039,2.0751-1.2738,4-3 c2.0099-1.8025-0.7353-2.7141,1-4c2.0988-1.5552,4.5219-0.4686,6-2c1.3787-1.4284-0.4493-2.7987,1-4 c0.6379-0.5287,3.0773-0.4945,6-1c1.2827-0.2218,3.239-0.5602,5-1c1.4183-0.3542,2.0643-1.2649,2-2 c-0.0632-0.7224-0.6832-0.9777-1-1c-2.0169-0.1422-2.2701,0.1908-4,0c-1.9902-0.2195-1.9509-0.6928-4-1 c-0.9448-0.1416-1.0863-0.061-5,0c-2.2653,0.0353-3.4099,0.0519-4,0c-2.562-0.2253-4.642-0.8844-5-1 c-2.0319-0.6559-2.0007-0.9771-3-1c-1.5103-0.0345-2.1089,0.6871-4,1c-1.2519,0.2071-2.313,0.1098-3,0l-1.004-0.5618 l-2.8295,3.0328l-2.2612,3.2599l-1.5459,3.005l-1.199,3.265l-0.8482,3.8116l-0.2314,2.0592L9,34z" stroke="none"/>
    <path fill="#B1CC33" stroke="none" stroke-width="2" stroke-linecap="round" stroke-linejoin="round" stroke-miterlimit="10" d="M32,47c-1.5469,0.1652-2.6099,0.7611-3,1c-0.7033,0.4307-1.5549,0.9523-2,2c-0.4653,1.0953-0.2139,2.1245,0,3 c0.2472,1.012,0.4286,1.7547,1,2c0.7282,0.3127,1.2331,0.4499,3,0c0.7713-0.1964,1.9404-0.4941,3,0c0.9949,0.464,0.8162,0.1239,2,1 c0.4182,0.3095,1.5387,1.1387,3,1c1.2722-0.1208,2.4038-0.9373,3-2c0.7448-1.3275,0.5882-2.9215,0-4 c-0.8341-1.5294-2.0909-1.2053-3-3c-0.4124-0.8142-0.3632-1.2944-1-2c-0.6519-0.7223-1.6523-1.2702-2-1 c-0.4014,0.312,0.4546,1.413,0,2C35.5139,47.6277,34.2306,46.7618,32,47z"/>
    <path fill="#B1CC33" stroke="none" stroke-width="2" stroke-linecap="round" stroke-linejoin="round" stroke-miterlimit="10" d="M27,41c-1.0128,0.5427-1.9557,1.547-2,2c-0.0252,0.2579,0.3162,0.5088,1,1c1.0589,0.7607,1.0884,1.8078,1.5,1.6667 c0.5548-0.1901,1.3464-1.7906,2.0426-2.8333c0.814-1.2191,3.0778-1.1972,3.2908-2.0833C33.0298,39.9323,30.613,38.0735,30,38 C29.1395,37.8969,29.0017,39.9274,27,41z"/>
    <path fill="#B1CC33" stroke="none" stroke-width="2" stroke-linecap="round" stroke-linejoin="round" stroke-miterlimit="10" d="M9,34c0.5363,0.13,2.3029,0.3956,3,1c0.8804,0.7633-0.0786,1.4353,1,3c0.8754,1.2699,1.4379,3.0859,2,3 c0.7427-0.1134,0.5561-2.6591,2-4c0.4647-0.4316,1.2271-2.1396,2-2c1.4918,0.2695,1.2206,3.3712,3,4 c1.0358,0.366,2.3338,0.7411,3,0c0.8521-0.9479,0.3369-1.7146,1-3c0.8275-1.6039,2.0751-1.2738,4-3 c2.0099-1.8025-0.7353-2.7141,1-4c2.0988-1.5552,4.5219-0.4686,6-2c1.3787-1.4284-0.4493-2.7987,1-4 c0.6379-0.5287,3.0773-0.4945,6-1c1.2827-0.2218,2.239,0.4398,4,0c1.4183-0.3542,4.0643-2.2649,4-3 c-0.0632-0.7224-1.6832-0.9777-2-1c-2.0169-0.1422-2.2701,0.1908-4,0c-1.9902-0.2195-1.9509-0.6928-4-1 c-0.9448-0.1416-1.0863-0.061-5,0c-2.2653,0.0353-3.4099,0.0519-4,0c-2.562-0.2253-4.642-0.8844-5-1 c-2.0319-0.6559-2.0007-0.9771-3-1c-1.5103-0.0345-2.1089,0.6871-4,1c-1.2519,0.2071-2.313,0.1098-3,0"/>
  </g>
  <g id="hair"/>
  <g id="skin"/>
  <g id="skin-shadow"/>
  <g id="line">
    <circle fill="none" stroke="#000000" stroke-width="2" stroke-linecap="round" stroke-linejoin="round" stroke-miterlimit="10" cx="36" cy="36" r="28"/>
    <path fill="none" stroke="#000000" stroke-width="2" stroke-linecap="round" stroke-linejoin="round" stroke-miterlimit="10" d="M32,47c-1.5469,0.1652-2.6099,0.7611-3,1c-0.7033,0.4307-1.5549,0.9523-2,2c-0.4653,1.0953-0.2139,2.1245,0,3 c0.2472,1.012,0.4286,1.7547,1,2c0.7282,0.3127,1.2331,0.4499,3,0c0.7713-0.1964,1.9404-0.4941,3,0c0.9949,0.464,0.8162,0.1239,2,1 c0.4182,0.3095,1.5387,1.1387,3,1c1.2722-0.1208,2.4038-0.9373,3-2c0.7448-1.3275,0.5882-2.9215,0-4 c-0.8341-1.5294-2.0909-1.2053-3-3c-0.4124-0.8142-0.3632-1.2944-1-2c-0.6519-0.7223-1.6523-1.2702-2-1 c-0.4014,0.312,0.4546,1.413,0,2C35.5139,47.6277,34.2306,46.7618,32,47z"/>
    <path fill="none" stroke="#000000" stroke-width="2" stroke-linecap="round" stroke-linejoin="round" stroke-miterlimit="10" d="M27,41c-1.0128,0.5427-1.9557,1.547-2,2c-0.0252,0.2579,0.3162,0.5088,1,1c1.0589,0.7607,1.0884,1.8078,1.5,1.6667 c0.5548-0.1901,1.3464-1.7906,2.0426-2.8333c0.814-1.2191,3.0778-1.1972,3.2908-2.0833C33.0298,39.9323,30.613,38.0735,30,38 C29.1395,37.8969,29.0017,39.9274,27,41z"/>
    <path fill="none" stroke="#000000" stroke-width="2" stroke-linecap="round" stroke-linejoin="round" stroke-miterlimit="10" d="M9,34c0.5363,0.13,2.3029,0.3956,3,1c0.8804,0.7633-0.0786,1.4353,1,3c0.8754,1.2699,1.4379,3.0859,2,3 c0.7427-0.1134,0.5561-2.6591,2-4c0.4647-0.4316,1.2271-2.1396,2-2c1.4918,0.2695,1.2206,3.3712,3,4 c1.0358,0.366,2.3338,0.7411,3,0c0.8521-0.9479,0.3369-1.7146,1-3c0.8275-1.6039,2.0751-1.2738,4-3 c2.0099-1.8025-0.7353-2.7141,1-4c2.0988-1.5552,4.5219-0.4686,6-2c1.3787-1.4284-0.4493-2.7987,1-4 c0.6379-0.5287,3.0773-0.4945,6-1c1.2827-0.2218,2.239,0.4398,4,0c1.4183-0.3542,4.0643-2.2649,4-3 c-0.0632-0.7224-1.6832-0.9777-2-1c-2.0169-0.1422-2.2701,0.1908-4,0c-1.9902-0.2195-1.9509-0.6928-4-1 c-0.9448-0.1416-1.0863-0.061-5,0c-2.2653,0.0353-3.4099,0.0519-4,0c-2.562-0.2253-4.642-0.8844-5-1 c-2.0319-0.6559-2.0007-0.9771-3-1c-1.5103-0.0345-2.1089,0.6871-4,1c-1.2519,0.2071-2.313,0.1098-3,0"/>
    <circle fill="none" stroke="#000000" stroke-width="2" stroke-linecap="round" stroke-linejoin="round" stroke-miterlimit="10" cx="36" cy="36" r="28"/>
  </g>
</svg>
    <line x1="23.5" y1="18.5" x2="47.5" y2="18.5" fill="none" stroke="#000" stroke-linecap="round" stroke-linejoin="round" stroke-width="2"/>
    <rect x="27.5" y="7.5" width="16" height="11" stroke-width="2" stroke="#000" stroke-linecap="round" stroke-linejoin="round" fill="none"/>
    <line x1="60" y1="31" x2="65" y2="31" fill="none" stroke="#000" stroke-linecap="round" stroke-linejoin="round" stroke-width="2.0351"/>
    <line x1="11" y1="30" x2="6" y2="30" fill="none" stroke="#000" stroke-linecap="round" stroke-linejoin="round" stroke-width="2.0351"/>
    <line x1="9" y1="24" x2="11" y2="30" fill="none" stroke="#000" stroke-linecap="round" stroke-linejoin="round" stroke-width="2.0351"/>
    <line x1="62" y1="25" x2="60" y2="31" fill="none" stroke="#000" stroke-linecap="round" stroke-linejoin="round" stroke-width="2.0351"/>
    <circle cx="31.5" cy="23.5" r="0.5" fill="none" stroke="#000" stroke-linecap="round" stroke-linejoin="round" stroke-width="2"/>
    <circle cx="38.5" cy="23.5" r="0.5" fill="none" stroke="#000" stroke-linecap="round" stroke-linejoin="round" stroke-width="2"/>
    <circle cx="35.5" cy="50.5" r="0.5" fill="none" stroke="#000" stroke-linecap="round" stroke-linejoin="round" stroke-width="2"/>
    <line x1="53.677" y1="9.9536" x2="59.0703" y2="15.3469" fill="none" stroke="#000" stroke-linecap="round" stroke-linejoin="round" stroke-width="2"/>
    <line x1="59.8939" y1="11.196" x2="52.7703" y2="13.9501" fill="none" stroke="#000" stroke-linecap="round" stroke-linejoin="round" stroke-width="2"/>
    <line x1="55.3315" y1="16.2584" x2="57.3327" y2="8.8878" fill="none" stroke="#000" stroke-linecap="round" stroke-linejoin="round" stroke-width="2"/>
    <line x1="55.677" y1="39.9536" x2="61.0703" y2="45.3469" fill="none" stroke="#000" stroke-linecap="round" stroke-linejoin="round" stroke-width="2"/>
    <line x1="61.8939" y1="41.196" x2="54.7703" y2="43.9501" fill="none" stroke="#000" stroke-linecap="round" stroke-linejoin="round" stroke-width="2"/>
    <line x1="57.3315" y1="48.2584" x2="59.3327" y2="40.8878" fill="none" stroke="#000" stroke-linecap="round" stroke-linejoin="round" stroke-width="2"/>
  </g>
</svg>
