<svg id="emoji" xmlns="http://www.w3.org/2000/svg" viewBox="0 0 70.636 86.636">
  <svg id="emoji" xmlns="http://www.w3.org/2000/svg" viewBox="0 10 72 72">
    <g id="color">
      <path d="M45.0931,43.8251c3.3559,6.6281,2.72,14.78-4.1425,18.2551" fill="none" stroke="#d0cfce" stroke-linecap="round" stroke-miterlimit="10" stroke-width="4"/>
      <path d="M43,21c1.7484,4.4914.4947,9.8429-4.7506,11.8847" fill="none" stroke="#d0cfce" stroke-linecap="round" stroke-miterlimit="10" stroke-width="3"/>  
    </g>
    <g id="line">
      <line x1="13.677" y1="9.9536" x2="19.0703" y2="15.3469" fill="none" stroke="#000" stroke-linecap="round" stroke-linejoin="round" stroke-width="2"/>
      <line x1="19.8939" y1="11.196" x2="12.7703" y2="13.9501" fill="none" stroke="#000" stroke-linecap="round" stroke-linejoin="round" stroke-width="2"/>
      <line x1="15.3315" y1="16.2584" x2="17.3327" y2="8.8878" fill="none" stroke="#000" stroke-linecap="round" stroke-linejoin="round" stroke-width="2"/>
      <path d="M47,43c3.7422,7.3909,3.0334,16.4814-4.6193,20.3561A15.2726,15.2726,0,0,1,21.7485,56.99C19.7516,53.0455,20.9967,46.6853,23,43" fill="none" stroke="#000" stroke-linecap="round" stroke-linejoin="round" stroke-width="2"/>
      <path d="M32,28s3,4,7,0" fill="none" stroke="#000" stroke-linecap="round" stroke-linejoin="round" stroke-width="2"/>
      <line x1="25" y1="38" x2="11" y2="30" fill="none" stroke="#000" stroke-linecap="round" stroke-linejoin="round" stroke-width="2"/>
      <line x1="46.0179" y1="38.0311" x2="60" y2="31" fill="none" stroke="#000" stroke-linecap="round" stroke-linejoin="round" stroke-width="2"/>
      <circle cx="35.5" cy="44.5" r="0.5" fill="none" stroke="#000" stroke-linecap="round" stroke-linejoin="round" stroke-width="2"/>
      <circle cx="35.5" cy="56.5" r="0.5" fill="none" stroke="#000" stroke-linecap="round" stroke-linejoin="round" stroke-width="2"/>
      <svg id="emoji" xmlns="http://www.w3.org/2000/svg" viewBox="-63 -35  200 200">
    <g id="color">
      <circle fill="#92D3F5" stroke="none" stroke-width="2" stroke-linecap="round" stroke-linejoin="round" stroke-miterlimit="10" cx="36" cy="36" r="28"/>
      <path fill="#B1CC33" d="M9,34c0.5363,0.13,2.3029,0.3956,3,1c0.8804,0.7633-0.0786,1.4353,1,3c0.8754,1.2699,1.4379,3.0859,2,3 c0.7427-0.1134,0.5561-2.6591,2-4c0.4647-0.4316,1.2271-2.1396,2-2c1.4918,0.2695,1.2206,3.3712,3,4 c1.0358,0.366,2.3338,0.7411,3,0c0.8521-0.9479,0.3369-1.7146,1-3c0.8275-1.6039,2.0751-1.2738,4-3 c2.0099-1.8025-0.7353-2.7141,1-4c2.0988-1.5552,4.5219-0.4686,6-2c1.3787-1.4284-0.4493-2.7987,1-4 c0.6379-0.5287,3.0773-0.4945,6-1c1.2827-0.2218,3.239-0.5602,5-1c1.4183-0.3542,2.0643-1.2649,2-2 c-0.0632-0.7224-0.6832-0.9777-1-1c-2.0169-0.1422-2.2701,0.1908-4,0c-1.9902-0.2195-1.9509-0.6928-4-1 c-0.9448-0.1416-1.0863-0.061-5,0c-2.2653,0.0353-3.4099,0.0519-4,0c-2.562-0.2253-4.642-0.8844-5-1 c-2.0319-0.6559-2.0007-0.9771-3-1c-1.5103-0.0345-2.1089,0.6871-4,1c-1.2519,0.2071-2.313,0.1098-3,0l-1.004-0.5618 l-2.8295,3.0328l-2.2612,3.2599l-1.5459,3.005l-1.199,3.265l-0.8482,3.8116l-0.2314,2.0592L9,34z" stroke="none"/>
      <path fill="#B1CC33" stroke="none" stroke-width="2" stroke-linecap="round" stroke-linejoin="round" stroke-miterlimit="10" d="M32,47c-1.5469,0.1652-2.6099,0.7611-3,1c-0.7033,0.4307-1.5549,0.9523-2,2c-0.4653,1.0953-0.2139,2.1245,0,3 c0.2472,1.012,0.4286,1.7547,1,2c0.7282,0.3127,1.2331,0.4499,3,0c0.7713-0.1964,1.9404-0.4941,3,0c0.9949,0.464,0.8162,0.1239,2,1 c0.4182,0.3095,1.5387,1.1387,3,1c1.2722-0.1208,2.4038-0.9373,3-2c0.7448-1.3275,0.5882-2.9215,0-4 c-0.8341-1.5294-2.0909-1.2053-3-3c-0.4124-0.8142-0.3632-1.2944-1-2c-0.6519-0.7223-1.6523-1.2702-2-1 c-0.4014,0.312,0.4546,1.413,0,2C35.5139,47.6277,34.2306,46.7618,32,47z"/>
      <path fill="#B1CC33" stroke="none" stroke-width="2" stroke-linecap="round" stroke-linejoin="round" stroke-miterlimit="10" d="M27,41c-1.0128,0.5427-1.9557,1.547-2,2c-0.0252,0.2579,0.3162,0.5088,1,1c1.0589,0.7607,1.0884,1.8078,1.5,1.6667 c0.5548-0.1901,1.3464-1.7906,2.0426-2.8333c0.814-1.2191,3.0778-1.1972,3.2908-2.0833C33.0298,39.9323,30.613,38.0735,30,38 C29.1395,37.8969,29.0017,39.9274,27,41z"/>
      <path fill="#B1CC33" stroke="none" stroke-width="2" stroke-linecap="round" stroke-linejoin="round" stroke-miterlimit="10" d="M9,34c0.5363,0.13,2.3029,0.3956,3,1c0.8804,0.7633-0.0786,1.4353,1,3c0.8754,1.2699,1.4379,3.0859,2,3 c0.7427-0.1134,0.5561-2.6591,2-4c0.4647-0.4316,1.2271-2.1396,2-2c1.4918,0.2695,1.2206,3.3712,3,4 c1.0358,0.366,2.3338,0.7411,3,0c0.8521-0.9479,0.3369-1.7146,1-3c0.8275-1.6039,2.0751-1.2738,4-3 c2.0099-1.8025-0.7353-2.7141,1-4c2.0988-1.5552,4.5219-0.4686,6-2c1.3787-1.4284-0.4493-2.7987,1-4 c0.6379-0.5287,3.0773-0.4945,6-1c1.2827-0.2218,2.239,0.4398,4,0c1.4183-0.3542,4.0643-2.2649,4-3 c-0.0632-0.7224-1.6832-0.9777-2-1c-2.0169-0.1422-2.2701,0.1908-4,0c-1.9902-0.2195-1.9509-0.6928-4-1 c-0.9448-0.1416-1.0863-0.061-5,0c-2.2653,0.0353-3.4099,0.0519-4,0c-2.562-0.2253-4.642-0.8844-5-1 c-2.0319-0.6559-2.0007-0.9771-3-1c-1.5103-0.0345-2.1089,0.6871-4,1c-1.2519,0.2071-2.313,0.1098-3,0"/>
    </g>
    <g id="line">
      <circle fill="none" stroke="#000000" stroke-width="2" stroke-linecap="round" stroke-linejoin="round" stroke-miterlimit="10" cx="36" cy="36" r="28"/>
      <path fill="none" stroke="#000000" stroke-width="2" stroke-linecap="round" stroke-linejoin="round" stroke-miterlimit="10" d="M32,47c-1.5469,0.1652-2.6099,0.7611-3,1c-0.7033,0.4307-1.5549,0.9523-2,2c-0.4653,1.0953-0.2139,2.1245,0,3 c0.2472,1.012,0.4286,1.7547,1,2c0.7282,0.3127,1.2331,0.4499,3,0c0.7713-0.1964,1.9404-0.4941,3,0c0.9949,0.464,0.8162,0.1239,2,1 c0.4182,0.3095,1.5387,1.1387,3,1c1.2722-0.1208,2.4038-0.9373,3-2c0.7448-1.3275,0.5882-2.9215,0-4 c-0.8341-1.5294-2.0909-1.2053-3-3c-0.4124-0.8142-0.3632-1.2944-1-2c-0.6519-0.7223-1.6523-1.2702-2-1 c-0.4014,0.312,0.4546,1.413,0,2C35.5139,47.6277,34.2306,46.7618,32,47z"/>
      <path fill="none" stroke="#000000" stroke-width="2" stroke-linecap="round" stroke-linejoin="round" stroke-miterlimit="10" d="M27,41c-1.0128,0.5427-1.9557,1.547-2,2c-0.0252,0.2579,0.3162,0.5088,1,1c1.0589,0.7607,1.0884,1.8078,1.5,1.6667 c0.5548-0.1901,1.3464-1.7906,2.0426-2.8333c0.814-1.2191,3.0778-1.1972,3.2908-2.0833C33.0298,39.9323,30.613,38.0735,30,38 C29.1395,37.8969,29.0017,39.9274,27,41z"/>
      <path fill="none" stroke="#000000" stroke-width="2" stroke-linecap="round" stroke-linejoin="round" stroke-miterlimit="10" d="M9,34c0.5363,0.13,2.3029,0.3956,3,1c0.8804,0.7633-0.0786,1.4353,1,3c0.8754,1.2699,1.4379,3.0859,2,3 c0.7427-0.1134,0.5561-2.6591,2-4c0.4647-0.4316,1.2271-2.1396,2-2c1.4918,0.2695,1.2206,3.3712,3,4 c1.0358,0.366,2.3338,0.7411,3,0c0.8521-0.9479,0.3369-1.7146,1-3c0.8275-1.6039,2.0751-1.2738,4-3 c2.0099-1.8025-0.7353-2.7141,1-4c2.0988-1.5552,4.5219-0.4686,6-2c1.3787-1.4284-0.4493-2.7987,1-4 c0.6379-0.5287,3.0773-0.4945,6-1c1.2827-0.2218,2.239,0.4398,4,0c1.4183-0.3542,4.0643-2.2649,4-3 c-0.0632-0.7224-1.6832-0.9777-2-1c-2.0169-0.1422-2.2701,0.1908-4,0c-1.9902-0.2195-1.9509-0.6928-4-1 c-0.9448-0.1416-1.0863-0.061-5,0c-2.2653,0.0353-3.4099,0.0519-4,0c-2.562-0.2253-4.642-0.8844-5-1 c-2.0319-0.6559-2.0007-0.9771-3-1c-1.5103-0.0345-2.1089,0.6871-4,1c-1.2519,0.2071-2.313,0.1098-3,0"/>
      <circle fill="none" stroke="#000000" stroke-width="2" stroke-linecap="round" stroke-linejoin="round" stroke-miterlimit="10" cx="36" cy="36" r="28"/>
    </g>
  </svg>
  <rect x="27" y="8" width="16" height="11" fill="#3f3f3f" stroke="#3f3f3f" stroke-linecap="round" stroke-linejoin="round"/>
  <line x1="23.5" y1="18.5" x2="47.5" y2="18.5" fill="none" stroke="#000" stroke-linecap="round" stroke-linejoin="round" stroke-width="2"/>
  <rect x="27.5" y="7.5" width="16" height="11" stroke-width="2" stroke="#000" stroke-linecap="round" stroke-linejoin="round" fill="none"/>
  <line x1="60" y1="31" x2="65" y2="31" fill="none" stroke="#000" stroke-linecap="round" stroke-linejoin="round" stroke-width="2.0351"/>
  <svg version="1.1" id="emoji" xmlns="http://www.w3.org/2000/svg" x="0" y="0" viewBox="10 -50 200 200" enable-background="new 0 0 72 72" xml:space="preserve">
    <g id="color">
      <rect x="19" y="23.2301" fill="#FCEA2B" width="29.9997" height="36.3856"/>
      <polygon fill="#F1B31C" points="40.5264,23.2301 33,59.6157 48.9998,59.6157 48.9998,23.2301"/>
      <path fill="#FFFFFF" d="M44.1933,15.3999c-1.304-0.001-2.5018,0.4709-3.4585,1.2577c-0.9376-1.9375-2.8336-3.2665-5.0258-3.2682 c-0.8005-0.0006-1.5606,0.1771-2.2511,0.4952c-1.1199-1.5208-2.8597-2.5031-4.819-2.5046c-2.9465-0.0023-5.4063,2.205-5.997,5.1492 c-0.3479-0.0874-0.7061-0.1448-1.0785-0.1451c-2.6033-0.0021-4.7162,2.2396-4.7184,5.0059l-0.0063,8.0154 c-0.0009,1.1021,0.847,2.0045,1.8842,2.0053l0.9429,0.0007c1.0372,0.0008,1.8865-0.9002,1.8873-2.0024l0.0013-1.5991 c0.5711,0.3722,1.2338,0.5981,1.9494,0.5987l1.8546,0.0015c1.2022,0.0009,2.2653-0.6144,2.9581-1.5517 c1.0256,1.5428,2.7125,2.5581,4.6153,2.5596c3.1115,0.0025,5.6594-2.7007,5.662-6.0071l10.9214,0.0086 c0.2098-0.627,0.3301-1.3002,0.3306-2.0036C49.8485,18.0956,47.318,15.4024,44.1933,15.3999z"/>
      <path fill="#FFFFFF" d="M19.8066,24.8075c0.0022-2.6882,2.115-4.8665,4.7184-4.8646c0.3724,0.0003,0.7307,0.0561,1.0785,0.141 c0.5907-2.861,3.0506-5.006,5.9971-5.0037c1.9593,0.0015,3.699,0.956,4.8189,2.4339c0.6904-0.3091,1.4505-0.4818,2.2511-0.4812 c2.1922,0.0017,4.0882,1.2932,5.0258,3.1759c0.9567-0.7645,2.1545-1.2232,3.4585-1.2222c0.5297,0.0004,1.0401,0.0815,1.5261,0.2223 c-0.7688-2.2807-2.8627-3.9207-5.3338-3.9226c-1.304-0.001-2.5018,0.4577-3.4585,1.2222 c-0.9376-1.8828-2.8336-3.1742-5.0258-3.1759c-0.8005-0.0006-1.5607,0.1721-2.2511,0.4812 c-1.1199-1.4778-2.8597-2.4324-4.8189-2.4339c-2.9465-0.0023-5.4064,2.1427-5.9971,5.0037 c-0.3478-0.085-0.7061-0.1407-1.0785-0.141c-2.6034-0.002-4.7163,2.1764-4.7184,4.8646l-0.0063,7.7891 c-0.0009,1.071,0.847,1.9479,1.8842,1.9487l0.9429,0.0007c0.3605,0.0003,0.6951-0.1105,0.9824-0.2934L19.8066,24.8075z"/>
    </g>
    <g id="line">
      <path fill="none" stroke="#000000" stroke-width="2" stroke-linecap="round" stroke-linejoin="round" stroke-miterlimit="10" d="M49.5,50.5h6c2.2,0,4-1.8,4-4v-14c0-2.2-1.8-4-4-4h-6"/>
      <polyline fill="none" stroke="#000000" stroke-width="2.0185" stroke-linecap="round" stroke-linejoin="round" stroke-miterlimit="10" points="38.5938,23.2301 48.9997,23.2301 48.9997,60 20,60 20,39.6348"/>
      <path fill="none" stroke="#000000" stroke-width="2" stroke-linecap="round" stroke-linejoin="round" stroke-miterlimit="10" d="M20.2515,31.3124c0.753-0.2628,1.3009-1.0182,1.3016-1.9033l0.0013-1.5991c0.5711,0.3722,1.2338,0.5981,1.9494,0.5987 l1.8546,0.0015c1.2022,0.0009,2.2653-0.6144,2.9581-1.5517c1.0256,1.5428,2.7125,2.5581,4.6153,2.5596 c3.1115,0.0025,5.6594-2.7007,5.662-6.0071l10.9214,0.0086c0.2098-0.627,0.3301-1.3002,0.3306-2.0036 c0.0026-3.3204-2.5278-6.0136-5.6525-6.016c-1.304-0.001-2.5018,0.4709-3.4585,1.2577c-0.9376-1.9375-2.8336-3.2665-5.0258-3.2682 c-0.8005-0.0006-1.5606,0.1771-2.2511,0.4952c-1.1199-1.5208-2.8597-2.5031-4.819-2.5046c-2.9465-0.0023-5.4063,2.205-5.997,5.1492 c-0.3479-0.0874-0.7061-0.1448-1.0785-0.1451c-2.6033-0.0021-4.7162,2.2396-4.7184,5.0059l-0.0063,8.0154 c-0.0009,1.1021,0.847,2.0045,1.8842,2.0053l0.9429,0.0007C19.87,31.4116,20.0669,31.3768,20.2515,31.3124"/>
    </g>
  </svg>
      <line x1="63" y1="26" x2="60" y2="31" fill="none" stroke="#000" stroke-linecap="round" stroke-linejoin="round" stroke-width="2"/>
      <circle cx="31.5" cy="23.5" r="0.5" fill="none" stroke="#000" stroke-linecap="round" stroke-linejoin="round" stroke-width="2"/>
      <circle cx="38.5" cy="23.5" r="0.5" fill="none" stroke="#000" stroke-linecap="round" stroke-linejoin="round" stroke-width="2"/>
      <circle cx="35.5" cy="50.5" r="0.5" fill="none" stroke="#000" stroke-linecap="round" stroke-linejoin="round" stroke-width="2"/>
      <line x1="53.677" y1="9.9536" x2="59.0703" y2="15.3469" fill="none" stroke="#000" stroke-linecap="round" stroke-linejoin="round" stroke-width="2"/>
      <line x1="59.8939" y1="11.196" x2="52.7703" y2="13.9501" fill="none" stroke="#000" stroke-linecap="round" stroke-linejoin="round" stroke-width="2"/>
      <line x1="55.3315" y1="16.2584" x2="57.3327" y2="8.8878" fill="none" stroke="#000" stroke-linecap="round" stroke-linejoin="round" stroke-width="2"/>
      <line x1="55.677" y1="39.9536" x2="61.0703" y2="45.3469" fill="none" stroke="#000" stroke-linecap="round" stroke-linejoin="round" stroke-width="2"/>
      <line x1="61.8939" y1="41.196" x2="54.7703" y2="43.9501" fill="none" stroke="#000" stroke-linecap="round" stroke-linejoin="round" stroke-width="2"/>
      <line x1="57.3315" y1="46.2584" x2="59.3327" y2="38.8878" fill="none" stroke="#000" stroke-linecap="round" stroke-linejoin="round" stroke-width="2"/>
    </g>
  <svg width="70.636" height="86.636" viewBox="0 -5 70.636 86.636">
     <path d="M32.7567,71.1383a13.81,13.81,0,0,0,6.5219-1.0536l4.7663-1.9066,4.7664-5.72a28.1609,28.1609,0,0,0,2.86-5.72c.9533-2.86,1.9065-3.4318,2.6692-3.4318a4.1682,4.1682,0,0,1,1.7158.572s.6673,2.0972.1907,2.86c0,0-2.0019,3.05-1.43,2.3831a17.1822,17.1822,0,0,1,2.4785-.3813c.7626,0,3.5271.3813,3.8131,2.2879a3.6809,3.6809,0,0,0,1.0486,2.86c.9638,1.417,1.2817,3.014.6673,3.8131-.7853,1.0212-3.3652,1.0927-5.6353-.9188q-.6743-.4473-1.3474-.8924-1.0855-.7178-2.1687-1.43s-2.1926,1.3345-4.957,3.2411a16.7389,16.7389,0,0,1-7.812,3.1847,15.2771,15.2771,0,0,1-6.0707-.427" fill="#92d3f5" stroke="#92d3f5" stroke-miterlimit="10" stroke-width="2"/>
      <g id="line">
      <path d="M5.7237,62.6959s2.2879,1.2392,8.77,2.6691a210.2877,210.2877,0,0,0,21.7346,3.05" fill="none" stroke="#000" stroke-linecap="round" stroke-linejoin="round" stroke-width="2"/>
      <path d="M51.6711,57.7389s.9536-3.6755,2.86-3.6755a2.1691,2.1691,0,0,1,1.2741.49,2.516,2.516,0,0,1,.5977,2.6681" fill="none" stroke="#000" stroke-linecap="round" stroke-linejoin="round" stroke-width="2"/>
      <path d="M50.5013,67.49a4.6978,4.6978,0,0,1,5.044-1.7656" fill="none" stroke="#000" stroke-linecap="round" stroke-linejoin="round" stroke-width="2"/>
      <path d="M58.4333,68.6594s3.1458,2.1926,4.1944.6673c.572-.8579.858-2.86-2.0018-3.7177" fill="none" stroke="#000" stroke-linecap="round" stroke-linejoin="round" stroke-width="2"/>
      <path d="M32.6933,71.1256a13.6291,13.6291,0,0,0,9.1922-1.0837c3.5271-2.3832,5.9728-8.49,14.5522-9.4432" fill="none" stroke="#000" stroke-linecap="round" stroke-linejoin="round" stroke-width="2"/>
    </g>
  </svg>
</svg>


