<svg id="emoji" xmlns="http://www.w3.org/2000/svg" viewBox="0 0 72 72">
  <g id="color">
    <circle  cx="36" cy="36" r="28" fill="#3f3f3f" stroke="#3f3f3f" stroke-linecap="round" stroke-linejoin="round" stroke-width="2"/>
    <path d="M29,62c20.0033,0,16.6634-52,16.6634-52s24.9582,7,16.6388,35S13.4011,62,29,62Z" stroke="#000" stroke-miterlimit="10" stroke-width="0.204" opacity="0.4"/>
  </g>
  <g id="line">
    <rect x="34" y="37" width="4" height="2" stroke-width="0.25" stroke="#000" stroke-linecap="round" stroke-linejoin="round"/>
    <path d="M36,64A28,28,0,0,1,36,8" fill="none" stroke="#000" stroke-linecap="round" stroke-linejoin="round" stroke-width="2"/>
    <path d="M36,8a28,28,0,0,1,0,56" fill="none" stroke="#000" stroke-linecap="round" stroke-linejoin="round" stroke-width="2"/>
    <path d="M36,39.5c1.1046,0,2.5-.8954,2.5-2H34A2,2,0,0,0,36,39.5Z" fill="none" stroke="#000" stroke-linecap="round" stroke-linejoin="round" stroke-width="2"/>
    <path d="M27,40s2.256,2.7023,1,9C41,51,47,46,47,36" fill="none" stroke="#000" stroke-linecap="round" stroke-linejoin="round" stroke-width="2"/>
    <circle cx="26.5" cy="27.5" r="5" fill="none" stroke="#000" stroke-linecap="round" stroke-linejoin="round" stroke-width="2"/>
    <circle cx="45.5" cy="27.5" r="5" fill="none" stroke="#000" stroke-linecap="round" stroke-linejoin="round" stroke-width="2"/>
    <circle cx="45.5" cy="27.5" r="5" fill="#fff" stroke="#000" stroke-linecap="round" stroke-linejoin="round"/>
    <g>
    <animateMotion attributeName="transform" id="rightEyeToLeft" path="M20, 25 h5 z" begin="0s" dur="4s" repeatCount="indefinite"/>
    <circle cx="22.75" cy="2.75" r="1.75" stroke="#000" stroke-linecap="round" stroke-linejoin="round" stroke-width="2"/>
    </g>
    <circle cx="26.5" cy="27.5" r="5" fill="#fff" stroke="#000" stroke-linecap="round" stroke-linejoin="round"/>
    <g>
    <animateTransform attributeName="transform" type="translate" from="20, 25" to="25, 25" begin="0s" dur="2.2s"   repeatCount="indefinite"/>     
    <circle cx="3.75" cy="2.75" r="1.75" stroke="#000" stroke-linecap="round" stroke-linejoin="round" stroke-width="2"/>
    </g>
  </g>
</svg>
